<svg width="115" height="33" viewBox="0 0 115 33" fill="none" xmlns="http://www.w3.org/2000/svg">
<g clip-path="url(#clip0_1_23)">
<path d="M19.9663 2.04294L16.8966 1.22042L14.3098 10.8747L11.9743 2.15875L8.90457 2.98128L11.4279 12.3982L5.1429 6.11328L2.89572 8.36046L9.78956 15.2543L1.20438 12.9539L0.381861 16.0236L9.76224 18.5371C9.65485 18.0739 9.59803 17.5912 9.59803 17.0953C9.59803 13.585 12.4437 10.7393 15.954 10.7393C19.4643 10.7393 22.31 13.585 22.31 17.0953C22.31 17.588 22.2539 18.0677 22.1478 18.5282L30.6728 20.8124L31.4953 17.7428L22.0776 15.2193L30.6634 12.9187L29.8408 9.84908L20.4236 12.3724L26.7085 6.08748L24.4613 3.84031L17.6631 10.6385L19.9663 2.04294Z" fill="#F97316"/>
<path d="M22.1395 18.5639C21.8763 19.6766 21.3206 20.6762 20.5583 21.477L26.7343 27.6531L28.9814 25.4059L22.1395 18.5639Z" fill="#F97316"/>
<path d="M20.4958 21.5416C19.7242 22.3297 18.7492 22.9178 17.6557 23.2209L19.903 31.608L22.9727 30.7854L20.4958 21.5416Z" fill="#F97316"/>
<path d="M17.5411 23.2515C17.0337 23.382 16.502 23.4513 15.954 23.4513C15.3669 23.4513 14.7984 23.3717 14.2587 23.2227L12.0093 31.6174L15.079 32.4399L17.5411 23.2515Z" fill="#F97316"/>
<path d="M14.1502 23.1917C13.0735 22.8735 12.1157 22.2779 11.3599 21.4876L5.1687 27.6788L7.41587 29.926L14.1502 23.1917Z" fill="#F97316"/>
<path d="M11.3082 21.4329C10.5654 20.6376 10.0243 19.6514 9.76669 18.5559L1.21383 20.8476L2.03634 23.9173L11.3082 21.4329Z" fill="#F97316"/>
<path d="M39.7594 24.6219V8.72838H46.1231C47.2923 8.72838 48.2676 8.9017 49.0488 9.24834C49.83 9.59497 50.4172 10.0761 50.8104 10.6918C51.2036 11.3023 51.4002 12.0059 51.4002 12.8027C51.4002 13.4235 51.2761 13.9693 51.0277 14.4401C50.7794 14.9058 50.4379 15.2886 50.0033 15.5887C49.5739 15.8836 49.0824 16.0931 48.5288 16.2173V16.3725C49.1341 16.3984 49.7007 16.5691 50.2284 16.8847C50.7613 17.2003 51.1933 17.6426 51.5244 18.2117C51.8555 18.7757 52.0211 19.4483 52.0211 20.2295C52.0211 21.0728 51.8115 21.8256 51.3925 22.4878C50.9786 23.1449 50.3655 23.6648 49.5532 24.0477C48.7409 24.4305 47.7398 24.6219 46.5499 24.6219H39.7594ZM43.1197 21.8747H45.8592C46.7956 21.8747 47.4786 21.6962 47.908 21.3392C48.3374 20.9771 48.5521 20.4959 48.5521 19.8958C48.5521 19.456 48.446 19.068 48.2339 18.7317C48.0218 18.3954 47.7191 18.1316 47.3259 17.9401C46.9379 17.7487 46.4749 17.653 45.9368 17.653H43.1197V21.8747ZM43.1197 15.3792H45.6109C46.0713 15.3792 46.48 15.299 46.837 15.1386C47.1992 14.973 47.4837 14.7402 47.6907 14.4401C47.9028 14.1401 48.0089 13.7805 48.0089 13.3614C48.0089 12.7871 47.8045 12.3241 47.3958 11.9723C46.9922 11.6205 46.418 11.4446 45.673 11.4446H43.1197V15.3792ZM54.1455 24.6219V12.7018H57.4515V24.6219H54.1455ZM55.8063 11.1652C55.3148 11.1652 54.8931 11.0022 54.5413 10.6763C54.1947 10.3452 54.0213 9.94937 54.0213 9.48891C54.0213 9.03363 54.1947 8.64301 54.5413 8.31707C54.8931 7.98595 55.3148 7.8204 55.8063 7.8204C56.2978 7.8204 56.7168 7.98595 57.0635 8.31707C57.4153 8.64301 57.5912 9.03363 57.5912 9.48891C57.5912 9.94937 57.4153 10.3452 57.0635 10.6763C56.7168 11.0022 56.2978 11.1652 55.8063 11.1652ZM66.4401 12.7018V15.1851H59.2616V12.7018H66.4401ZM60.8914 9.8459H64.1973V20.959C64.1973 21.2642 64.2439 21.5022 64.337 21.6729C64.4302 21.8385 64.5595 21.9549 64.7251 22.0222C64.8958 22.0894 65.0924 22.1231 65.3149 22.1231C65.4701 22.1231 65.6253 22.1101 65.7805 22.0843C65.9357 22.0532 66.0547 22.0299 66.1375 22.0144L66.6574 24.4745C66.4919 24.5262 66.2591 24.5857 65.959 24.653C65.6589 24.7254 65.2942 24.7694 64.8647 24.7849C64.068 24.816 63.3696 24.7099 62.7694 24.4667C62.1744 24.2236 61.7114 23.8459 61.3803 23.3337C61.0492 22.8215 60.8862 22.1748 60.8914 21.3936V9.8459ZM68.9119 24.6219V8.72838H72.2179V14.704H72.3187C72.4636 14.3832 72.6731 14.0573 72.9473 13.7262C73.2267 13.3899 73.5889 13.1105 74.0338 12.888C74.4839 12.6604 75.0427 12.5466 75.7101 12.5466C76.5793 12.5466 77.3812 12.7742 78.1159 13.2295C78.8505 13.6796 79.4377 14.3599 79.8775 15.2705C80.3173 16.1759 80.5371 17.3115 80.5371 18.6774C80.5371 20.007 80.3224 21.1297 79.893 22.0455C79.4688 22.956 78.8893 23.6467 78.1547 24.1175C77.4252 24.5831 76.6077 24.816 75.7023 24.816C75.0608 24.816 74.515 24.7099 74.0649 24.4978C73.6199 24.2857 73.2552 24.0192 72.9706 23.6984C72.6861 23.3725 72.4688 23.044 72.3187 22.7129H72.1713V24.6219H68.9119ZM72.148 18.6619C72.148 19.3707 72.2463 19.9889 72.4429 20.5166C72.6395 21.0443 72.9241 21.4557 73.2966 21.7506C73.6691 22.0403 74.1218 22.1851 74.6547 22.1851C75.1927 22.1851 75.648 22.0377 76.0205 21.7428C76.393 21.4427 76.675 21.0288 76.8664 20.5011C77.063 19.9682 77.1613 19.3551 77.1613 18.6619C77.1613 17.9738 77.0656 17.3684 76.8742 16.8459C76.6827 16.3234 76.4008 15.9146 76.0283 15.6197C75.6558 15.3248 75.1979 15.1774 74.6547 15.1774C74.1166 15.1774 73.6613 15.3197 73.2888 15.6042C72.9215 15.8888 72.6395 16.2923 72.4429 16.8149C72.2463 17.3374 72.148 17.9531 72.148 18.6619ZM86.0491 8.72838V24.6219H82.7431V8.72838H86.0491ZM94.0831 24.8548C92.8777 24.8548 91.8352 24.5987 90.9557 24.0865C90.0813 23.5691 89.4061 22.85 88.9302 21.929C88.4542 21.003 88.2162 19.9294 88.2162 18.7084C88.2162 17.4771 88.4542 16.401 88.9302 15.48C89.4061 14.554 90.0813 13.8348 90.9557 13.3226C91.8352 12.8052 92.8777 12.5466 94.0831 12.5466C95.2886 12.5466 96.3285 12.8052 97.2029 13.3226C98.0824 13.8348 98.7602 14.554 99.2361 15.48C99.7121 16.401 99.9501 17.4771 99.9501 18.7084C99.9501 19.9294 99.7121 21.003 99.2361 21.929C98.7602 22.85 98.0824 23.5691 97.2029 24.0865C96.3285 24.5987 95.2886 24.8548 94.0831 24.8548ZM94.0987 22.2938C94.6471 22.2938 95.105 22.1386 95.4723 21.8282C95.8396 21.5126 96.1164 21.0831 96.3027 20.5399C96.4941 19.9967 96.5898 19.3784 96.5898 18.6851C96.5898 17.9919 96.4941 17.3736 96.3027 16.8304C96.1164 16.2871 95.8396 15.8577 95.4723 15.5421C95.105 15.2265 94.6471 15.0687 94.0987 15.0687C93.5451 15.0687 93.0795 15.2265 92.7018 15.5421C92.3293 15.8577 92.0473 16.2871 91.8559 16.8304C91.6696 17.3736 91.5765 17.9919 91.5765 18.6851C91.5765 19.3784 91.6696 19.9967 91.8559 20.5399C92.0473 21.0831 92.3293 21.5126 92.7018 21.8282C93.0795 22.1386 93.5451 22.2938 94.0987 22.2938ZM107.47 29.3404C106.399 29.3404 105.481 29.1929 104.715 28.898C103.955 28.6083 103.349 28.2125 102.899 27.7106C102.449 27.2088 102.157 26.6449 102.022 26.0188L105.08 25.6075C105.173 25.8455 105.32 26.068 105.522 26.2749C105.724 26.4819 105.99 26.6474 106.322 26.7716C106.658 26.901 107.067 26.9656 107.548 26.9656C108.267 26.9656 108.859 26.7897 109.325 26.4379C109.796 26.0913 110.031 25.5092 110.031 24.6918V22.5111H109.891C109.746 22.8422 109.529 23.1552 109.239 23.4501C108.95 23.745 108.577 23.9856 108.122 24.1718C107.667 24.3581 107.123 24.4512 106.492 24.4512C105.597 24.4512 104.782 24.2443 104.048 23.8304C103.318 23.4113 102.736 22.7724 102.302 21.9135C101.872 21.0495 101.657 19.9579 101.657 18.6386C101.657 17.2882 101.877 16.1604 102.317 15.255C102.757 14.3496 103.341 13.6718 104.071 13.2217C104.806 12.7716 105.61 12.5466 106.484 12.5466C107.152 12.5466 107.711 12.6604 108.161 12.888C108.611 13.1105 108.973 13.3899 109.247 13.7262C109.527 14.0573 109.741 14.3832 109.891 14.704H110.016V12.7018H113.298V24.7384C113.298 25.7524 113.05 26.6009 112.553 27.2838C112.057 27.9667 111.368 28.4789 110.489 28.8204C109.615 29.167 108.608 29.3404 107.47 29.3404ZM107.54 21.9678C108.073 21.9678 108.523 21.8359 108.89 21.5721C109.263 21.303 109.547 20.9202 109.744 20.4235C109.946 19.9217 110.047 19.3215 110.047 18.6231C110.047 17.9246 109.948 17.3193 109.752 16.8071C109.555 16.2897 109.271 15.8888 108.898 15.6042C108.525 15.3197 108.073 15.1774 107.54 15.1774C106.997 15.1774 106.539 15.3248 106.166 15.6197C105.794 15.9095 105.512 16.313 105.32 16.8304C105.129 17.3477 105.033 17.9453 105.033 18.6231C105.033 19.3112 105.129 19.9061 105.32 20.408C105.517 20.9047 105.799 21.2901 106.166 21.5643C106.539 21.8333 106.997 21.9678 107.54 21.9678Z" fill="#3C2B1F"/>
</g>
<defs>
<clipPath id="clip0_1_23">
<rect width="114.732" height="32" fill="white" transform="translate(0.134146 0.5)"/>
</clipPath>
</defs>
</svg>
