<svg width="115" height="33" viewBox="0 0 115 33" fill="none" xmlns="http://www.w3.org/2000/svg">
<g clip-path="url(#clip0_1_41)">
<path d="M14.2584 23.2227C14.7981 23.3717 15.3672 23.4514 15.9543 23.4514C16.5022 23.4513 17.0339 23.3821 17.5412 23.2517L15.0793 32.4399L12.0091 31.6175L14.2584 23.2227Z" fill="#FF7700"/>
<path d="M22.9726 30.7852L19.9032 31.6076L17.6555 23.2212C18.749 22.9181 19.7246 22.3294 20.4962 21.5413L22.9726 30.7852Z" fill="#FF7700"/>
<path d="M11.3598 21.4879C12.1155 22.2782 13.0735 22.8733 14.1502 23.1915L7.41616 29.9262L5.16845 27.6785L11.3598 21.4879Z" fill="#FF7700"/>
<path d="M28.9817 25.4056L26.734 27.6533L20.5579 21.4773C21.3203 20.6765 21.8763 19.6767 22.1395 18.5642L28.9817 25.4056Z" fill="#FF7700"/>
<path d="M9.76677 18.5558C10.0243 19.6512 10.5651 20.6378 11.3079 21.4331L2.03659 23.9171L1.21418 20.8477L9.76677 18.5558Z" fill="#FF7700"/>
<path d="M19.9665 2.04282L17.6631 10.6389L24.4611 3.84008L26.7088 6.08779L20.4238 12.3721L29.8407 9.84922L30.6631 12.9186L22.0777 15.2197L31.4954 17.7425L30.673 20.8126L22.1479 18.5283C22.2539 18.0679 22.3102 17.5881 22.3102 17.0954C22.3102 13.5852 19.4645 10.7396 15.9543 10.7395C12.4439 10.7395 9.59832 13.5851 9.59832 17.0954C9.59833 17.5912 9.65486 18.0737 9.7622 18.5367L0.381861 16.0238L1.20427 12.9536L9.78964 15.2547L2.89558 8.36066L5.14253 6.11294L11.4276 12.398L8.90473 2.98108L11.9741 2.15868L14.3095 10.8744L16.8963 1.22041L19.9665 2.04282Z" fill="#FF7700"/>
<path d="M39.7594 24.6951V8.80155H46.1231C47.2923 8.80155 48.2676 8.97487 49.0488 9.32151C49.83 9.66815 50.4172 10.1493 50.8104 10.765C51.2036 11.3755 51.4002 12.0791 51.4002 12.8758C51.4002 13.4967 51.2761 14.0425 51.0277 14.5133C50.7794 14.9789 50.4379 15.3618 50.0033 15.6619C49.5739 15.9568 49.0824 16.1663 48.5288 16.2905V16.4457C49.1341 16.4715 49.7007 16.6423 50.2284 16.9579C50.7613 17.2735 51.1933 17.7158 51.5244 18.2849C51.8555 18.8489 52.0211 19.5214 52.0211 20.3027C52.0211 21.146 51.8115 21.8987 51.3925 22.561C50.9786 23.218 50.3655 23.738 49.5532 24.1208C48.7409 24.5037 47.7398 24.6951 46.5499 24.6951H39.7594ZM43.1197 21.9479H45.8592C46.7956 21.9479 47.4786 21.7694 47.908 21.4124C48.3374 21.0503 48.5521 20.5691 48.5521 19.969C48.5521 19.5292 48.446 19.1412 48.2339 18.8049C48.0218 18.4686 47.7191 18.2047 47.3259 18.0133C46.9379 17.8219 46.4749 17.7262 45.9368 17.7262H43.1197V21.9479ZM43.1197 15.4523H45.6109C46.0713 15.4523 46.48 15.3721 46.837 15.2118C47.1992 15.0462 47.4837 14.8134 47.6907 14.5133C47.9028 14.2132 48.0089 13.8537 48.0089 13.4346C48.0089 12.8603 47.8045 12.3973 47.3958 12.0455C46.9922 11.6936 46.418 11.5177 45.6729 11.5177H43.1197V15.4523Z" fill="white"/>
<path d="M54.1455 24.6951V12.7749H57.4515V24.6951H54.1455ZM55.8063 11.2384C55.3148 11.2384 54.8931 11.0754 54.5413 10.7494C54.1947 10.4183 54.0213 10.0225 54.0213 9.56208C54.0213 9.1068 54.1947 8.71619 54.5413 8.39024C54.8931 8.05913 55.3148 7.89357 55.8063 7.89357C56.2978 7.89357 56.7168 8.05913 57.0635 8.39024C57.4153 8.71619 57.5912 9.1068 57.5912 9.56208C57.5912 10.0225 57.4153 10.4183 57.0635 10.7494C56.7168 11.0754 56.2978 11.2384 55.8063 11.2384Z" fill="white"/>
<path d="M66.4401 12.7749V15.2583H59.2616V12.7749H66.4401ZM60.8914 9.91907H64.1973V21.0322C64.1973 21.3374 64.2439 21.5754 64.337 21.7461C64.4302 21.9117 64.5595 22.0281 64.7251 22.0953C64.8958 22.1626 65.0924 22.1962 65.3149 22.1962C65.4701 22.1962 65.6253 22.1833 65.7805 22.1574C65.9357 22.1264 66.0547 22.1031 66.1375 22.0876L66.6574 24.5477C66.4919 24.5994 66.2591 24.6589 65.959 24.7262C65.6589 24.7986 65.2942 24.8426 64.8647 24.8581C64.068 24.8891 63.3695 24.7831 62.7694 24.5399C62.1744 24.2967 61.7114 23.9191 61.3803 23.4069C61.0491 22.8947 60.8862 22.248 60.8914 21.4667V9.91907Z" fill="white"/>
<path d="M68.9119 24.6951V8.80155H72.2178V14.7772H72.3187C72.4636 14.4564 72.6731 14.1305 72.9473 13.7993C73.2267 13.463 73.5889 13.1837 74.0338 12.9612C74.4839 12.7336 75.0427 12.6197 75.7101 12.6197C76.5793 12.6197 77.3812 12.8474 78.1159 13.3027C78.8505 13.7528 79.4377 14.4331 79.8775 15.3437C80.3173 16.2491 80.5371 17.3847 80.5371 18.7506C80.5371 20.0802 80.3224 21.2029 79.893 22.1186C79.4688 23.0292 78.8893 23.7199 78.1547 24.1907C77.4252 24.6563 76.6077 24.8891 75.7023 24.8891C75.0608 24.8891 74.515 24.7831 74.0649 24.571C73.6199 24.3588 73.2552 24.0924 72.9706 23.7716C72.6861 23.4457 72.4688 23.1171 72.3187 22.786H72.1713V24.6951H68.9119ZM72.148 18.735C72.148 19.4438 72.2463 20.0621 72.4429 20.5898C72.6395 21.1175 72.9241 21.5288 73.2966 21.8237C73.6691 22.1135 74.1218 22.2583 74.6547 22.2583C75.1927 22.2583 75.648 22.1109 76.0205 21.816C76.393 21.5159 76.675 21.102 76.8664 20.5743C77.063 20.0414 77.1613 19.4283 77.1613 18.735C77.1613 18.0469 77.0656 17.4416 76.8742 16.9191C76.6827 16.3965 76.4008 15.9878 76.0283 15.6929C75.6558 15.398 75.1979 15.2506 74.6547 15.2506C74.1166 15.2506 73.6613 15.3928 73.2888 15.6774C72.9215 15.9619 72.6395 16.3655 72.4429 16.888C72.2463 17.4106 72.148 18.0262 72.148 18.735Z" fill="white"/>
<path d="M86.0491 8.80155V24.6951H82.7431V8.80155H86.0491Z" fill="white"/>
<path d="M94.0831 24.9279C92.8777 24.9279 91.8352 24.6718 90.9557 24.1596C90.0813 23.6423 89.4061 22.9231 88.9302 22.0022C88.4542 21.0761 88.2162 20.0026 88.2162 18.7816C88.2162 17.5503 88.4542 16.4741 88.9302 15.5532C89.4061 14.6271 90.0813 13.908 90.9557 13.3958C91.8352 12.8784 92.8777 12.6197 94.0831 12.6197C95.2886 12.6197 96.3285 12.8784 97.2029 13.3958C98.0824 13.908 98.7602 14.6271 99.2361 15.5532C99.7121 16.4741 99.9501 17.5503 99.9501 18.7816C99.9501 20.0026 99.7121 21.0761 99.2361 22.0022C98.7602 22.9231 98.0824 23.6423 97.2029 24.1596C96.3285 24.6718 95.2886 24.9279 94.0831 24.9279ZM94.0987 22.367C94.6471 22.367 95.105 22.2118 95.4723 21.9013C95.8396 21.5857 96.1164 21.1563 96.3027 20.6131C96.4941 20.0698 96.5898 19.4516 96.5898 18.7583C96.5898 18.065 96.4941 17.4468 96.3027 16.9035C96.1164 16.3603 95.8396 15.9309 95.4723 15.6153C95.105 15.2997 94.6471 15.1419 94.0987 15.1419C93.5451 15.1419 93.0795 15.2997 92.7018 15.6153C92.3293 15.9309 92.0473 16.3603 91.8559 16.9035C91.6696 17.4468 91.5765 18.065 91.5765 18.7583C91.5765 19.4516 91.6696 20.0698 91.8559 20.6131C92.0473 21.1563 92.3293 21.5857 92.7018 21.9013C93.0795 22.2118 93.5451 22.367 94.0987 22.367Z" fill="white"/>
<path d="M107.47 29.4135C106.399 29.4135 105.481 29.2661 104.715 28.9712C103.955 28.6814 103.349 28.2857 102.899 27.7838C102.449 27.282 102.157 26.718 102.022 26.092L105.08 25.6807C105.173 25.9187 105.32 26.1412 105.522 26.3481C105.724 26.5551 105.99 26.7206 106.322 26.8448C106.658 26.9741 107.067 27.0388 107.548 27.0388C108.267 27.0388 108.859 26.8629 109.325 26.5111C109.796 26.1645 110.031 25.5824 110.031 24.765V22.5843H109.891C109.746 22.9154 109.529 23.2284 109.239 23.5233C108.95 23.8182 108.577 24.0588 108.122 24.245C107.667 24.4313 107.123 24.5244 106.492 24.5244C105.597 24.5244 104.782 24.3174 104.048 23.9035C103.318 23.4845 102.736 22.8455 102.302 21.9867C101.872 21.1227 101.657 20.031 101.657 18.7118C101.657 17.3614 101.877 16.2336 102.317 15.3282C102.757 14.4228 103.341 13.745 104.071 13.2949C104.806 12.8448 105.61 12.6197 106.484 12.6197C107.152 12.6197 107.711 12.7336 108.161 12.9612C108.611 13.1837 108.973 13.463 109.247 13.7993C109.527 14.1305 109.741 14.4564 109.891 14.7772H110.016V12.7749H113.298V24.8115C113.298 25.8256 113.05 26.6741 112.553 27.357C112.057 28.0399 111.368 28.5521 110.489 28.8936C109.615 29.2402 108.608 29.4135 107.47 29.4135ZM107.54 22.041C108.073 22.041 108.523 21.9091 108.89 21.6452C109.263 21.3762 109.547 20.9933 109.744 20.4967C109.946 19.9948 110.047 19.3947 110.047 18.6962C110.047 17.9978 109.948 17.3925 109.752 16.8803C109.555 16.3629 109.271 15.9619 108.898 15.6774C108.526 15.3928 108.073 15.2506 107.54 15.2506C106.997 15.2506 106.539 15.398 106.166 15.6929C105.794 15.9826 105.512 16.3862 105.32 16.9035C105.129 17.4209 105.033 18.0185 105.033 18.6962C105.033 19.3843 105.129 19.9793 105.32 20.4812C105.517 20.9778 105.799 21.3633 106.166 21.6375C106.539 21.9065 106.997 22.041 107.54 22.041Z" fill="white"/>
</g>
<defs>
<clipPath id="clip0_1_41">
<rect width="114.732" height="32" fill="white" transform="translate(0.134146 0.5)"/>
</clipPath>
</defs>
</svg>
